<svg xmlns="http://www.w3.org/2000/svg" width="24" height="24" viewBox="0 0 24 24">
  <g id="_login" data-name=" login" transform="translate(-684 -444)">
    <g id="login">
      <path id="Vector" d="M0,5.2v9.59A4.835,4.835,0,0,0,5.2,20H7.79a4.832,4.832,0,0,0,5.2-5.2V5.2A4.819,4.819,0,0,0,7.8,0H5.2A4.832,4.832,0,0,0,0,5.2Z" transform="translate(693 446)" fill="#292d32" opacity="0.4"/>
      <path id="Vector-2" data-name="Vector" d="M10.43.225l3.35,3.35a.754.754,0,0,1,0,1.06l-3.35,3.35a.75.75,0,0,1-1.06-1.06l2.07-2.07H.75a.75.75,0,0,1,0-1.5H11.44L9.37,1.285a.748.748,0,0,1,0-1.06A.737.737,0,0,1,10.43.225Z" transform="translate(686 451.895)" fill="#292d32"/>
      <path id="Vector-3" data-name="Vector" d="M0,0H24V24H0Z" transform="translate(684 444)" fill="none" opacity="0"/>
    </g>
  </g>
</svg>
